<?xml version="1.0" encoding="iso-8859-1"?>
<!-- Generator: Adobe Illustrator 19.0.0, SVG Export Plug-In . SVG Version: 6.00 Build 0)  -->
<svg version="1.1" id="Capa_1" xmlns="http://www.w3.org/2000/svg" xmlns:xlink="http://www.w3.org/1999/xlink" x="0px" y="0px"
	 viewBox="0 0 512 512" style="enable-background:new 0 0 512 512;" xml:space="preserve">
<g>
	<g>
		<path d="M503.579,209.578l-54.883-8.773c-4.183-14.651-10.016-28.743-17.403-42.043l32.598-45.001
			c2.883-3.979,2.447-9.463-1.027-12.938l-51.686-51.685c-3.474-3.474-8.958-3.909-12.938-1.027l-45.001,32.597
			c-13.3-7.387-27.393-13.22-42.043-17.402l-8.772-54.883C301.648,3.57,297.463,0,292.549,0h-73.095
			c-4.913,0-9.099,3.57-9.874,8.421l-8.773,54.884c-14.652,4.183-28.743,10.016-42.042,17.402L113.762,48.11
			c-3.978-2.882-9.462-2.447-12.938,1.027l-51.686,51.686c-3.474,3.475-3.91,8.959-1.027,12.938l32.597,45.001
			c-7.387,13.3-13.22,27.393-17.402,42.042l-54.884,8.773c-4.852,0.777-8.421,4.962-8.421,9.876v73.095
			c0,4.914,3.57,9.099,8.421,9.875l54.883,8.773c4.183,14.65,10.016,28.743,17.402,42.042l-32.596,45.001
			c-2.882,3.979-2.447,9.463,1.027,12.938l51.686,51.686c3.475,3.474,8.959,3.909,12.938,1.027l45.001-32.597
			c13.3,7.387,27.393,13.22,42.042,17.402l8.773,54.884c0.775,4.852,4.961,8.421,9.874,8.421h73.095c4.914,0,9.1-3.57,9.875-8.422
			l8.772-54.883c14.65-4.183,28.743-10.016,42.043-17.402l45.001,32.597c3.98,2.882,9.463,2.447,12.938-1.027l51.686-51.686
			c3.475-3.474,3.91-8.958,1.027-12.937l-32.597-45.001c7.387-13.3,13.22-27.393,17.401-42.042l54.884-8.773
			c4.853-0.775,8.422-4.961,8.422-9.875v-73.095C512.001,214.539,508.432,210.354,503.579,209.578z M492.001,284.019l-52.865,8.451
			c-3.956,0.632-7.152,3.564-8.124,7.45c-4.298,17.201-11.093,33.616-20.194,48.79c-2.061,3.435-1.873,7.767,0.477,11.01
			l31.397,43.344l-39.625,39.625l-43.344-31.397c-3.243-2.349-7.576-2.536-11.011-0.477c-15.173,9.102-31.588,15.897-48.79,20.195
			c-3.887,0.971-6.818,4.168-7.451,8.124L284.02,492h-56.038l-8.451-52.866c-0.632-3.956-3.564-7.152-7.45-8.123
			c-17.201-4.298-33.617-11.093-48.79-20.195c-3.434-2.06-7.767-1.873-11.01,0.477l-43.344,31.397l-39.626-39.625l31.397-43.344
			c2.35-3.244,2.537-7.576,0.477-11.01c-9.102-15.173-15.897-31.589-20.195-48.79c-0.971-3.886-4.167-6.818-8.123-7.45
			l-52.866-8.452v-56.038l52.866-8.451c3.956-0.632,7.152-3.564,8.123-7.45c4.298-17.201,11.093-33.617,20.195-48.79
			c2.061-3.434,1.873-7.767-0.477-11.01l-31.397-43.344l39.625-39.625l43.344,31.397c3.243,2.349,7.575,2.537,11.01,0.477
			c15.172-9.102,31.587-15.896,48.79-20.195c3.886-0.971,6.818-4.168,7.45-8.123L227.982,20h56.038l8.449,52.865
			c0.633,3.956,3.564,7.152,7.451,8.124c17.202,4.298,33.617,11.093,48.79,20.195c3.434,2.06,7.767,1.873,11.011-0.477
			l43.344-31.397l39.625,39.625l-31.398,43.345c-2.35,3.244-2.537,7.576-0.477,11.011c9.103,15.172,15.897,31.587,20.195,48.79
			c0.972,3.886,4.168,6.818,8.124,7.45l52.867,8.45V284.019z"/>
	</g>
</g>
<g>
	<g>
		<path d="M256.001,126.553c-71.377,0-129.447,58.07-129.447,129.447c0,59.941,40.955,110.49,96.349,125.152
			c0.147,0.046,0.293,0.096,0.443,0.135c1.826,0.475,3.666,0.894,5.512,1.288c0.551,0.118,1.102,0.236,1.656,0.347
			c0.595,0.119,1.19,0.233,1.787,0.343c0.7,0.13,1.402,0.252,2.105,0.371c0.493,0.083,0.986,0.169,1.481,0.246
			c1.131,0.177,2.267,0.341,3.407,0.489c0.08,0.01,0.16,0.024,0.241,0.034c1.242,0.158,2.491,0.294,3.743,0.417
			c0.365,0.036,0.73,0.065,1.095,0.098c0.906,0.081,1.814,0.154,2.725,0.216c0.417,0.028,0.834,0.055,1.251,0.079
			c0.902,0.053,1.807,0.095,2.714,0.129c0.378,0.014,0.756,0.032,1.134,0.043c1.264,0.037,2.532,0.06,3.805,0.06
			s2.54-0.024,3.805-0.06c0.378-0.011,0.756-0.029,1.134-0.043c0.907-0.034,1.812-0.076,2.714-0.129
			c0.417-0.024,0.834-0.051,1.251-0.079c0.912-0.062,1.82-0.135,2.727-0.216c0.364-0.032,0.729-0.062,1.092-0.097
			c1.253-0.123,2.503-0.259,3.746-0.417c0.075-0.009,0.15-0.022,0.226-0.032c1.146-0.148,2.286-0.313,3.423-0.491
			c0.492-0.077,0.982-0.162,1.473-0.245c0.707-0.119,1.412-0.242,2.114-0.373c0.594-0.11,1.187-0.224,1.779-0.342
			c0.558-0.112,1.114-0.23,1.669-0.349c1.843-0.394,3.68-0.812,5.503-1.286c0.15-0.039,0.294-0.089,0.441-0.135
			c55.395-14.662,96.351-65.211,96.351-125.152C385.448,184.623,327.379,126.553,256.001,126.553z M276.138,363.583
			c-0.249,0.046-0.496,0.099-0.746,0.143c-0.049,0.009-0.099,0.017-0.148,0.026c-0.778,0.138-1.56,0.267-2.344,0.389
			c-0.229,0.035-0.459,0.069-0.688,0.103c-0.594,0.089-1.189,0.172-1.786,0.251c-0.371,0.049-0.742,0.096-1.113,0.141
			c-0.445,0.054-0.891,0.105-1.338,0.153c-0.49,0.053-0.98,0.105-1.471,0.151c-0.317,0.03-0.635,0.057-0.953,0.085
			c-0.594,0.051-1.188,0.101-1.783,0.142c-0.193,0.014-0.386,0.024-0.579,0.037c-0.704,0.046-1.407,0.088-2.112,0.12
			c-0.012,0-0.024,0.001-0.036,0.001c-3.356,0.152-6.72,0.152-10.076,0c-0.013-0.001-0.026-0.001-0.039-0.001
			c-0.703-0.032-1.405-0.075-2.107-0.12c-0.195-0.013-0.391-0.024-0.586-0.037c-0.593-0.042-1.186-0.091-1.779-0.142
			c-0.319-0.028-0.639-0.055-0.958-0.085c-0.49-0.046-0.979-0.098-1.468-0.151c-0.448-0.049-0.896-0.1-1.342-0.154
			c-0.37-0.045-0.74-0.092-1.109-0.14c-0.598-0.079-1.195-0.162-1.79-0.251c-0.229-0.034-0.458-0.067-0.686-0.103
			c-0.784-0.122-1.566-0.251-2.344-0.389c-0.049-0.009-0.099-0.017-0.148-0.026c-0.25-0.045-0.497-0.097-0.746-0.143v-37.8
			c5.149,1.368,10.439,2.19,15.835,2.479c0.21,0.011,0.42,0.02,0.63,0.03c1.219,0.055,2.442,0.093,3.672,0.093
			c1.231,0,2.454-0.038,3.674-0.093c0.209-0.01,0.418-0.019,0.626-0.03c5.397-0.288,10.687-1.11,15.838-2.479V363.583z
			 M270.787,306.481c-0.129,0.033-0.257,0.068-0.386,0.101c-0.784,0.2-1.576,0.381-2.372,0.549c-0.223,0.047-0.446,0.091-0.67,0.135
			c-0.729,0.145-1.463,0.277-2.202,0.394c-0.331,0.052-0.664,0.096-0.996,0.142c-0.652,0.092-1.304,0.18-1.962,0.25
			c-0.507,0.053-1.018,0.089-1.528,0.129c-0.506,0.04-1.01,0.089-1.52,0.116c-1.045,0.055-2.095,0.088-3.151,0.088
			c-1.056,0-2.106-0.033-3.151-0.088c-0.51-0.027-1.015-0.076-1.522-0.116c-0.509-0.04-1.019-0.076-1.525-0.129
			c-0.659-0.07-1.313-0.159-1.965-0.25c-0.331-0.046-0.663-0.089-0.992-0.141c-0.741-0.117-1.476-0.25-2.207-0.395
			c-0.221-0.043-0.442-0.087-0.662-0.133c-0.799-0.168-1.593-0.35-2.38-0.551c-0.125-0.032-0.249-0.065-0.374-0.098
			c-25.032-6.561-43.555-29.372-43.555-56.433c0-16.401,6.704-31.554,18.195-42.379v33.434c0,5.521,4.477,9.999,10,9.999h60.278
			c5.522,0,10-4.477,10-10V207.67c11.491,10.826,18.196,25.979,18.196,42.38C314.336,277.108,295.816,299.918,270.787,306.481z
			 M296.14,357.824v-40.537c22.858-13.697,38.196-38.706,38.196-67.237c0-30.07-16.775-57.01-43.779-70.305
			c-3.1-1.526-6.768-1.344-9.7,0.481c-2.934,1.825-4.717,5.035-4.717,8.49v42.388h-40.278v-42.388c0-3.455-1.783-6.665-4.717-8.49
			c-2.933-1.825-6.601-2.008-9.7-0.481c-27.003,13.295-43.778,40.234-43.778,70.305c0,28.531,15.338,53.54,38.196,67.237v40.537
			c-40.55-16.041-69.309-55.637-69.309-101.824c0-60.35,49.098-109.447,109.447-109.447S365.448,195.65,365.448,256
			C365.448,302.187,336.69,341.783,296.14,357.824z"/>
	</g>
</g>
<g>
	<g>
		<path d="M374.599,137.401c-65.396-65.394-171.801-65.394-237.197,0c-26.064,26.064-42.502,59.091-47.537,95.511
			c-4.87,35.228,1.722,71.766,18.563,102.882c2.628,4.857,8.697,6.663,13.554,4.035s6.663-8.697,4.035-13.554
			c-30.849-57-20.351-128.852,25.528-174.731c57.597-57.598,151.316-57.597,208.912,0c57.598,57.597,57.598,151.315,0,208.913
			c-3.905,3.905-3.905,10.237,0,14.142c1.953,1.953,4.512,2.929,7.071,2.929c2.56,0,5.118-0.976,7.071-2.929
			c31.679-31.679,49.125-73.798,49.125-118.599C423.724,211.199,406.278,169.08,374.599,137.401z"/>
	</g>
</g>
<g>
	<g>
		<path d="M150.337,359.236c-3.034-3.098-7.72-3.886-11.6-1.954c-3.882,1.933-6.075,6.146-5.433,10.435
			c0.642,4.282,4.009,7.707,8.279,8.422c0.554,0.093,1.107,0.138,1.656,0.138c3.678,0,7.12-2.035,8.863-5.375
			C154.104,367.063,153.368,362.329,150.337,359.236z"/>
	</g>
</g>
<g>
	<g>
		<path d="M274.119,259.589h-36.237c-5.523,0-10,4.477-10,10s4.477,10,10,10h36.237c5.522,0,10-4.477,10-10
			S279.641,259.589,274.119,259.589z"/>
	</g>
</g>
<g>
</g>
<g>
</g>
<g>
</g>
<g>
</g>
<g>
</g>
<g>
</g>
<g>
</g>
<g>
</g>
<g>
</g>
<g>
</g>
<g>
</g>
<g>
</g>
<g>
</g>
<g>
</g>
<g>
</g>
</svg>
