<svg height="488pt" viewBox="0 0 488 488.1574" width="488pt" xmlns="http://www.w3.org/2000/svg"><path d="m406.679688 228.355469-16.402344-35.199219c-6.199219-13.398438-9.398438-28-9.398438-42.800781 0-2.796875.199219-5.597657.398438-8.597657l.402344-3.601562 30.398437-134h-336l30.601563 134.199219.398437 3.601562c.199219 2.800781.402344 5.601563.402344 8.601563 0 14.796875-3.203125 29.398437-9.402344 42.796875l-16.398437 35.203125c-18.601563 39.796875-28.199219 83.199218-28.199219 127v45.398437c0 28 2.398437 55.800781 7.398437 83.398438h169.199219l11-58.597657c.199219-1.402343 1.402344-2.402343 3-2.402343 1.601563 0 2.601563 1 3 2.402343l11 58.398438h169.402344c4.796875-27.597656 7.398437-55.398438 7.398437-83.398438v-45.402343c-.199218-43.796875-9.800781-87.199219-28.199218-127zm0 0" fill="#f9cfcf"/><path d="m381.480469 138.355469 30.597656-134.199219h-336l30.601563 134.199219.398437 3.601562c.199219 2.800781.402344 5.601563.402344 8.601563 0 14.796875-3.203125 29.398437-9.402344 42.796875l-16.398437 35.203125c-4 8.796875-7.800782 17.796875-11 26.796875h347c-3.199219-9.199219-6.800782-18-11-26.796875l-16.402344-35.203125c-6.199219-13.398438-9.398438-28-9.398438-42.796875 0-2.800782.199219-5.601563.398438-8.601563zm0 0" fill="#6bdddd"/><path d="m53.480469 355.558594v45.398437c0 28 2.398437 55.800781 7.398437 83.398438h169.199219l11-58.597657c.199219-1.402343 1.402344-2.402343 3-2.402343 1.601563 0 2.601563 1 3 2.402343l11 58.398438h169.402344c4.796875-27.597656 7.398437-55.398438 7.398437-83.398438v-45.402343c0-34.199219-5.800781-68-17.199218-100.199219h-347c-11.402344 32.199219-17.199219 66.199219-17.199219 100.402344zm0 0" fill="#4671c6"/><path d="m427.480469 488.15625h-169.402344c-2 0-3.597656-1.398438-4-3.199219l-10-53.199219-10 53.199219c-.398437 1.800781-2 3.199219-4 3.199219h-169.398437c-2 0-3.601563-1.398438-4-3.199219-5-27.601562-7.402344-56-7.402344-84v-45.398437c0-44.203125 9.800781-88.800782 28.601562-128.800782l16.398438-35.199218c6-12.800782 9-27 9-41 0-2.800782-.199219-5.402344-.398438-8.203125l-.199218-3.199219-30.402344-134.199219c-.199219-1.199219 0-2.398437.800781-3.398437.601563-.800782 1.800781-1.402344 3-1.402344h336c1.199219 0 2.402344.601562 3.199219 1.601562.800781 1 1 2.199219.800781 3.398438l-30.597656 134-.203125 3.199219c-.199219 2.800781-.398438 5.402343-.398438 8.203125 0 14 3.199219 28.199218 9 41l16.398438 35.199218c18.601562 40 28.601562 84.597657 28.601562 128.800782v45.398437c0 28-2.398437 56.398438-7.398437 84-.402344 1.800781-2.203125 3.199219-4 3.199219zm-166-8h162.597656c4.402344-26.199219 6.601563-52.800781 6.601563-79.398438v-45.402343c0-43-9.601563-86.398438-27.800782-125.398438l-16.398437-35.199219c-6.402344-13.800781-9.800781-29.199218-9.800781-44.402343 0-3 .199218-6 .398437-8.796875l.402344-3.601563c0-.398437 0-.601562.199219-1l29.398437-128.800781h-326l29.601563 129.199219v.601562l.398437 3.601563c.199219 3 .402344 6 .402344 8.796875 0 15.203125-3.402344 30.601562-9.800781 44.402343l-16.601563 35.398438c-18.199219 39-27.800781 82.402344-27.800781 125.402344v45.398437c0 26.601563 2.203125 53.199219 6.601562 79.398438h162.601563l10.398437-55.398438c.601563-3.199219 3.601563-5.601562 6.800782-5.601562 3.199218 0 6.199218 2.402343 6.800781 5.601562zm0 0" fill="#3762cc"/><path d="m344.480469 324.558594-62.800781-46.800782-19.402344-19.402343c-1.796875-1.796875-.597656-5 2-5.199219l28.203125-1.199219c14.398437 1.601563 27-8.601562 28.398437-23 .398438-4-2.601562-7.601562-6.601562-8l-21.796875-2.601562-101.601563-20.199219c-.398437 0-.800781-.199219-1.398437-.199219h-.203125c-6.398438-1.199219-13-1-19.398438.398438l-165.800781-183.199219v160.800781l97.800781 88.601563c-3.800781 13.199218-1.800781 27.597656 5.601563 39.398437l.199219.199219c.398437.402344.597656 1 1 1.402344l51.199218 76.199218 26.601563 40.597657c5 8.203125 16 10.402343 23.796875 4.402343 6.601562-5 7.800781-14.402343 3.601562-21.601562l-19.800781-33.199219c-1.199219-2.199219-1-4.800781.800781-6.601562 2.398438-2.398438 6.199219-2 8 .601562l47.199219 63.199219c5.800781 7.601562 17 8.800781 24.199219 2 6-5.800781 6.402344-15.199219 1.402344-21.800781l-50.601563-67.796875c-1.597656-2.203125-1.398437-5.203125.601563-7 2.199218-2.203125 5.597656-2.203125 7.597656 0l69.402344 69.398437c6.800781 6.800781 18.199218 6.199219 24.199218-1.601562 5.199219-6.597657 4-16-1.800781-21.796875l-69-69c-2-2-2-5.402344 0-7.402344 1.800781-1.800781 4.800781-2 7-.597656l62.800781 46.796875c7.800782 5.800781 19.199219 3.601562 24-5.398438 3.601563-6.601562 1.199219-15.601562-5.398437-20.398437zm0 0" fill="#f9cfcf"/><path d="m262.878906 439.957031c-.601562 0-1.199218 0-1.601562 0-5.796875-.398437-11-3.398437-14.398438-8l-47.199218-63.199219c-.402344-.402343-.800782-.601562-1-.601562-.199219 0-.601563 0-1 .402344-.402344.398437-.601563 1.199218-.199219 1.597656l19.796875 33.199219c5.402344 9 3.402344 20.601562-4.597656 26.800781-4.601563 3.601562-10.402344 5-16.199219 4-5.601563-1-10.601563-4.597656-13.601563-9.398438l-26.601562-40.601562-51.199219-76.199219c-.398437-.398437-.597656-1-1-1.601562v-.199219c0-.199219-.199219-.199219-.199219-.398438-7.398437-12-9.800781-26.402343-6.601562-40l-96-87c-.796875-.601562-1.199219-1.601562-1.199219-2.800781v-160.800781c0-1.597656 1-3.199219 2.601563-3.800781 1.597656-.597657 3.199218-.199219 4.398437 1l164.402344 181.402343c6-1 12.199219-1.199218 18.398437 0h.398438c.402344 0 .800781.199219 1.203125.199219h.199219l101.597656 20.398438 21.601562 2.601562c6.199219.800781 10.800782 6.199219 10.199219 12.398438-.800781 8-4.597656 15.203125-10.800781 20.203125-6.199219 5-13.796875 7.199218-21.796875 6.398437l-25.800781 1.199219 17.597656 17.601562 62.601562 46.597657c8.199219 6.203125 10.800782 17.402343 6.199219 26-2.800781 5.203125-7.800781 8.800781-13.398437 10.203125-5.800782 1.199218-11.601563 0-16.402344-3.601563l-62.796875-46.800781c-.601563-.398438-1.203125-.398438-1.800781.199219-.601563.601562-.601563 1.402343 0 1.800781l69 69c7.398437 7.402344 8.398437 19 2.199218 27-3.601562 4.601562-9 7.402344-14.800781 7.800781-5.800781.398438-11.398437-1.800781-15.398437-5.800781l-69.402344-69.398438c-.597656-.601562-1.398438-.601562-2 0-.398438.398438-.597656 1.199219-.199219 1.800782l50.601563 67.796875c6.199218 8.402343 5.597656 20.203125-1.800782 27.203125-3.800781 3.398437-8.800781 5.398437-14 5.398437zm-64.398437-79.800781h.597656c2.800781.199219 5.199219 1.601562 6.800781 3.800781l47.199219 63.199219c2 2.800781 5.199219 4.601562 8.800781 4.800781 3.601563.199219 6.800782-.800781 9.398438-3.398437 4.402344-4.203125 4.800781-11.402344 1-16.601563l-50.597656-67.800781c-2.800782-3.800781-2.402344-9 .800781-12.199219 3.597656-3.601562 9.597656-3.601562 13.398437 0l69.398438 69.398438c2.402344 2.402343 5.800781 3.800781 9.402344 3.601562 3.597656-.199219 6.597656-1.800781 8.800781-4.800781 3.796875-4.800781 3-12-1.402344-16.398438l-69-69c-3.597656-3.601562-3.597656-9.601562 0-13.199218 3.199219-3.203125 8.402344-3.601563 12.199219-.800782l62.800781 46.800782c2.800781 2.199218 6.402344 2.796875 9.800781 2.199218 3.601563-.800781 6.398438-3 8.199219-6.199218 2.800781-5.203125 1.199219-12-3.800781-15.800782l-62.796875-46.800781c-.203125-.199219-.203125-.199219-.402344-.398437l-19.398437-19.402344c-2-2-2.601563-5-1.601563-7.597656 1-2.601563 3.402344-4.402344 6.199219-4.402344l28.203125-1.199219h.597656c5.800781.601563 11.601563-1 16.199219-4.601562 4.601562-3.597657 7.203125-8.796875 7.800781-14.796875.199219-1.800782-1.199219-3.402344-3.199219-3.601563l-21.800781-2.601562c-.199219 0-.199219 0-.398437 0l-102-20.398438c-.402344 0-.601563-.199219-1-.199219 0 0 0 0-.199219 0-6-1-11.800781-.800781-17.800781.398438-1.402344.402344-2.800782-.199219-3.800782-1.199219l-158.800781-175.398437v148.597656l96.402344 87.402344c1.199219 1 1.597656 2.597656 1.199219 4-3.402344 12.199218-1.601563 25.597656 5.199218 36.199218v.199219c.398438.601563.601563 1 1 1.398438l51.199219 76.203125 26.601563 40.597656c1.800781 3.199219 4.800781 5.199219 8.199218 5.800781 3.398438.601563 7-.199219 9.800782-2.398437 4.800781-3.601563 5.800781-10.800782 2.597656-16.402344l-19.796875-33.199219c-2.203125-3.601562-1.601563-8.398437 1.398437-11.398437 1.601563-1.601563 4-2.402344 6.601563-2.402344zm0 0" fill="#3762cc"/><path d="m292.078125 189.957031v-116.601562l-24.398437-63.597657c-1.199219-3.199218 2-6.402343 5.199218-5.199218l66.800782 25.597656h112.398437c17.601563 0 32 14.402344 32 32v128c0 17.601562-14.398437 32-32 32h-128c-17.597656-.199219-32-14.398438-32-32.199219zm0 0" fill="#a4c9ff"/><path d="m454.480469 50.757812h-128c-6.601563 0-12 5.398438-12 12v128c0 6.597657 5.398437 12 12 12h128c6.597656 0 12-5.402343 12-12v-128c0-6.601562-5.402344-12-12-12zm0 0" fill="#e0ebfc"/><path d="m452.078125 225.957031h-128c-19.800781 0-36-16.199219-36-36v-116l-24.199219-63c-1.199218-3-.398437-6.199219 1.800782-8.601562 2.199218-2.199219 5.597656-3 8.597656-1.796875l66.203125 25.398437h111.597656c19.800781 0 36 16.199219 36 36v128c0 20-16.199219 36-36 36zm-180.597656-217.800781 24.398437 63.601562c.199219.398438.199219 1 .199219 1.398438v116.800781c0 15.398438 12.601563 28 28 28h128c15.402344 0 28-12.601562 28-28v-128c0-15.398437-12.597656-28-28-28h-112.398437c-.402344 0-1 0-1.402344-.199219zm0 0" fill="#3762cc"/><path d="m456.480469 126.757812c0 36.449219-29.550781 66-66 66-36.453125 0-66-29.550781-66-66 0-36.453124 29.546875-66 66-66 36.449219 0 66 29.546876 66 66zm0 0" fill="#f9a7a7"/><g fill="#3762cc"><path d="m408.878906 167.355469c-2.199218 0-4-1.796875-4-4 0-3.398438-5.199218-7-12.601562-7-7.398438 0-12.597656 3.800781-12.597656 7 0 2.203125-1.800782 4-4 4-2.199219 0-4-1.796875-4-4 0-8.398438 9-15 20.597656-15 11.601562 0 20.601562 6.601562 20.601562 15 0 2.203125-1.601562 4-4 4zm0 0"/><path d="m350.878906 133.957031c-1.398437 0-3-.800781-3.601562-2.199219-1-2-.199219-4.402343 1.800781-5.402343l13.402344-6.597657-15.203125-7.800781c-2-1-2.796875-3.398437-1.796875-5.398437s3.398437-2.800782 5.398437-1.800782l22.199219 11.398438c1.402344.601562 2.199219 2 2.199219 3.601562 0 1.597657-.796875 2.800782-2.199219 3.597657l-20.597656 10c-.402344.402343-1 .601562-1.601563.601562zm0 0"/><path d="m429.878906 133.957031c-.601562 0-1.199218-.199219-1.800781-.398437l-20.597656-10c-1.402344-.601563-2.203125-2-2.203125-3.601563 0-1.601562.800781-3 2.203125-3.601562l22.199219-11.398438c2-1 4.398437-.199219 5.398437 1.800781s.199219 4.398438-1.800781 5.398438l-15.199219 7.800781 13.402344 6.601563c2 1 2.796875 3.398437 1.796875 5.398437-.597656 1.199219-2 2-3.398438 2zm0 0"/></g></svg>